<svg version="1.1" viewBox="0.0 0.0 1265.8530183727034 587.0262467191601" fill="none" stroke="none" stroke-linecap="square" stroke-miterlimit="10" xmlns:xlink="http://www.w3.org/1999/xlink" xmlns="http://www.w3.org/2000/svg"><clipPath id="p.0"><path d="m0 0l1265.853 0l0 587.02625l-1265.853 0l0 -587.02625z" clip-rule="nonzero"/></clipPath><g clip-path="url(#p.0)"><path fill="#000000" fill-opacity="0.0" d="m0 0l1265.853 0l0 587.02625l-1265.853 0z" fill-rule="evenodd"/><path fill="#000000" d="m23.683727 293.5164l94.64365 -164.01569l189.35838 0l94.64365 164.01569l-94.64365 164.01566l-189.35838 0z" fill-rule="evenodd"/><path stroke="#000000" stroke-width="1.0" stroke-linejoin="round" stroke-linecap="butt" d="m23.683727 293.5164l94.64365 -164.01569l189.35838 0l94.64365 164.01569l-94.64365 164.01566l-189.35838 0z" fill-rule="evenodd"/><path fill="#ffffff" d="m127.29802 293.5054l42.84636 -74.25192l85.74036 0l42.846344 74.25192l-42.846344 74.25195l-85.74036 0z" fill-rule="evenodd"/><path stroke="#ffffff" stroke-width="1.0" stroke-linejoin="round" stroke-linecap="butt" d="m127.29802 293.5054l42.84636 -74.25192l85.74036 0l42.846344 74.25192l-42.846344 74.25195l-85.74036 0z" fill-rule="evenodd"/><path fill="#000000" fill-opacity="0.0" d="m255.88474 219.25348l51.811035 -89.76378" fill-rule="evenodd"/><path stroke="#ffffff" stroke-width="4.0" stroke-linejoin="round" stroke-linecap="butt" d="m255.88474 219.25348l51.811035 -89.76378" fill-rule="evenodd"/><path fill="#000000" fill-opacity="0.0" d="m255.87473 367.76828l51.811035 89.76376" fill-rule="evenodd"/><path stroke="#ffffff" stroke-width="4.0" stroke-linejoin="round" stroke-linecap="butt" d="m255.87473 367.76828l51.811035 89.76376" fill-rule="evenodd"/><path fill="#000000" fill-opacity="0.0" d="m438.32678 223.21654l803.8425 0l0 140.59843l-803.8425 0z" fill-rule="evenodd"/><path fill="#000000" d="m493.0299 271.5759q0.921875 -1.265625 2.015625 -1.90625q1.109375 -0.640625 2.375 -0.640625q2.203125 0 3.59375 1.515625q1.390625 1.515625 1.390625 5.125l0 8.5q0 3.609375 -1.390625 5.15625q-1.390625 1.53125 -3.59375 1.53125q-2.0 0 -3.21875 -1.125q-1.21875 -1.109375 -1.8125 -4.1875q-0.328125 -2.0625 -1.359375 -3.171875q-2.0 -2.203125 -5.59375 -3.515625q-3.59375 -1.328125 -7.203125 -1.328125q-4.484375 0 -8.25 1.953125q-3.765625 1.953125 -6.640625 6.359375q-2.875 4.390625 -2.875 10.4375l0 6.5q0 7.21875 5.25 12.0625q5.25 4.828125 14.5625 4.828125q5.578125 0 9.4375 -1.515625q2.234375 -0.875 4.78125 -3.46875q1.5625 -1.5625 2.4375 -2.015625q0.875 -0.46875 2.0 -0.46875q2.0 0 3.515625 1.515625q1.515625 1.515625 1.515625 3.5625q0 2.046875 -2.046875 4.390625q-2.984375 3.421875 -7.671875 5.375q-6.296875 2.640625 -13.90625 2.640625q-8.890625 0 -16.015625 -3.671875q-5.765625 -2.921875 -9.828125 -9.25q-4.046875 -6.328125 -4.046875 -13.796875l0 -6.78125q0 -7.8125 3.640625 -14.578125q3.640625 -6.765625 10.078125 -10.421875q6.453125 -3.65625 13.671875 -3.65625q4.34375 0 8.125 1.0q3.796875 1.0 7.0625 3.046875zm70.30664 35.296875q0 5.765625 -3.203125 11.171875q-3.1875 5.390625 -9.515625 8.59375q-6.3125 3.1875 -13.203125 3.1875q-6.828125 0 -13.078125 -3.140625q-6.25 -3.15625 -9.53125 -8.578125q-3.265625 -5.421875 -3.265625 -11.328125q0 -6.0 3.3125 -11.78125q3.328125 -5.796875 9.546875 -9.109375q6.234375 -3.328125 13.015625 -3.328125q6.84375 0 13.15625 3.390625q6.328125 3.390625 9.546875 9.140625q3.21875 5.734375 3.21875 11.78125zm-10.0 0.046875q0 -4.828125 -3.46875 -8.875q-4.734375 -5.46875 -12.453125 -5.46875q-6.78125 0 -11.328125 4.34375q-4.546875 4.34375 -4.546875 10.0625q0 4.6875 4.59375 8.765625q4.59375 4.0625 11.28125 4.0625q6.734375 0 11.328125 -4.0625q4.59375 -4.078125 4.59375 -8.828125zm41.947266 -23.046875l0 6.25q6.296875 -4.53125 9.921875 -6.046875q3.640625 -1.515625 6.8125 -1.515625q4.890625 0 9.484375 3.609375q3.125 2.453125 3.125 4.984375q0 2.15625 -1.5 3.640625q-1.484375 1.484375 -3.578125 1.484375q-1.859375 0 -3.921875 -1.84375q-2.046875 -1.859375 -3.65625 -1.859375q-2.09375 0 -6.265625 2.640625q-4.171875 2.625 -10.421875 7.90625l0 15.078125l14.25 0q3.609375 0 5.140625 1.390625q1.546875 1.390625 1.546875 3.640625q0 2.203125 -1.546875 3.59375q-1.53125 1.390625 -5.140625 1.390625l-30.21875 0q-3.625 0 -5.15625 -1.390625q-1.53125 -1.390625 -1.53125 -3.640625q0 -2.203125 1.53125 -3.59375q1.53125 -1.390625 5.15625 -1.390625l5.953125 0l0 -24.3125l-3.609375 0q-3.625 0 -5.15625 -1.390625q-1.53125 -1.390625 -1.53125 -3.640625q0 -2.1875 1.53125 -3.578125q1.53125 -1.40625 5.15625 -1.40625l13.625 0zm87.197266 27.25l-41.0625 0q1.5625 3.90625 5.53125 6.296875q3.984375 2.390625 10.78125 2.390625q5.5625 0 14.796875 -2.390625q3.796875 -0.96875 5.265625 -0.96875q2.0 0 3.359375 1.421875q1.375 1.40625 1.375 3.5625q0 1.953125 -1.453125 3.3125q-1.953125 1.8125 -9.53125 3.453125q-7.5625 1.625 -14.546875 1.625q-12.015625 0 -19.21875 -6.78125q-7.203125 -6.796875 -7.203125 -16.703125q0 -10.546875 7.78125 -17.15625q7.796875 -6.625 17.953125 -6.625q6.109375 0 11.203125 2.15625q5.109375 2.140625 7.59375 4.625q3.515625 3.625 5.8125 8.9375q1.5625 3.71875 1.5625 8.59375l0 4.25zm-11.078125 -10.0q-2.296875 -4.296875 -6.015625 -6.421875q-3.703125 -2.125 -8.828125 -2.125q-5.078125 0 -8.796875 2.125q-3.703125 2.125 -6.046875 6.421875l29.6875 0zm43.509766 -7.234375l0 20.0625q0 3.234375 1.3125 4.25q2.046875 1.609375 7.328125 1.609375q7.65625 0 14.15625 -3.265625q2.484375 -1.265625 3.90625 -1.265625q1.953125 0 3.390625 1.46875q1.4375 1.453125 1.4375 3.5625q0 1.953125 -1.5625 3.359375q-2.390625 2.296875 -9.453125 4.234375q-7.046875 1.921875 -11.875 1.921875q-9.328125 0 -14.0 -4.03125q-4.65625 -4.03125 -4.65625 -9.890625l0 -22.015625l-3.609375 0q-3.625 0 -5.15625 -1.390625q-1.53125 -1.390625 -1.53125 -3.640625q0 -2.1875 1.53125 -3.578125q1.53125 -1.40625 5.15625 -1.40625l3.609375 0l0 -9.03125q0 -3.609375 1.390625 -5.140625q1.390625 -1.546875 3.640625 -1.546875q2.1875 0 3.578125 1.546875q1.40625 1.53125 1.40625 5.140625l0 9.03125l18.5 0q3.609375 0 5.140625 1.40625q1.546875 1.390625 1.546875 3.625q0 2.203125 -1.546875 3.59375q-1.53125 1.390625 -5.140625 1.390625l-18.5 0zm87.58789 17.234375l-41.0625 0q1.5625 3.90625 5.53125 6.296875q3.984375 2.390625 10.78125 2.390625q5.5625 0 14.796875 -2.390625q3.796875 -0.96875 5.265625 -0.96875q2.0 0 3.359375 1.421875q1.375 1.40625 1.375 3.5625q0 1.953125 -1.453125 3.3125q-1.953125 1.8125 -9.53125 3.453125q-7.5625 1.625 -14.546875 1.625q-12.015625 0 -19.21875 -6.78125q-7.203125 -6.796875 -7.203125 -16.703125q0 -10.546875 7.78125 -17.15625q7.796875 -6.625 17.953125 -6.625q6.109375 0 11.203125 2.15625q5.109375 2.140625 7.59375 4.625q3.515625 3.625 5.8125 8.9375q1.5625 3.71875 1.5625 8.59375l0 4.25zm-11.078125 -10.0q-2.296875 -4.296875 -6.015625 -6.421875q-3.703125 -2.125 -8.828125 -2.125q-5.078125 0 -8.796875 2.125q-3.703125 2.125 -6.046875 6.421875l29.6875 0zm61.572266 -15.4375q1.796875 -1.703125 3.703125 -1.703125q2.15625 0 3.546875 1.546875q1.390625 1.53125 1.390625 5.09375l0 6.4375q0 3.609375 -1.390625 5.125q-1.390625 1.515625 -3.640625 1.515625q-2.046875 0 -3.46875 -1.171875q-1.015625 -0.875 -1.609375 -3.578125q-0.578125 -2.71875 -2.828125 -4.03125q-3.953125 -2.34375 -10.109375 -2.34375q-7.078125 0 -11.359375 4.15625q-4.265625 4.140625 -4.265625 10.484375q0 5.859375 4.09375 9.265625q4.109375 3.390625 13.625 3.390625q6.25 0 10.203125 -1.28125q2.34375 -0.78125 4.4375 -2.65625q2.109375 -1.875 3.828125 -1.875q2.046875 0 3.53125 1.515625q1.484375 1.5 1.484375 3.5625q0 3.3125 -4.53125 6.296875q-6.734375 4.4375 -19.734375 4.4375q-11.671875 0 -18.15625 -4.828125q-8.796875 -6.5 -8.796875 -17.78125q0 -10.6875 7.125 -17.6875q7.140625 -7.015625 18.609375 -7.015625q4.15625 0 7.71875 0.78125q3.5625 0.78125 6.59375 2.34375zm109.26953 -6.640625l0 39.15625l6.75 0q3.609375 0 5.140625 1.390625q1.546875 1.390625 1.546875 3.640625q0 2.203125 -1.546875 3.59375q-1.53125 1.390625 -5.140625 1.390625l-23.4375 0q-3.625 0 -5.171875 -1.390625q-1.53125 -1.390625 -1.53125 -3.640625q0 -2.203125 1.53125 -3.59375q1.546875 -1.390625 5.171875 -1.390625l6.6875 0l0 -39.15625l-10.84375 0l0 9.46875q0 3.625 -1.390625 5.15625q-1.390625 1.53125 -3.640625 1.53125q-2.203125 0 -3.59375 -1.53125q-1.390625 -1.53125 -1.390625 -5.15625l0 -19.53125l51.859375 0.046875l0 19.484375q0 3.625 -1.390625 5.15625q-1.390625 1.53125 -3.640625 1.53125q-2.1875 0 -3.59375 -1.53125q-1.390625 -1.53125 -1.390625 -5.15625l0 -9.46875l-10.984375 0zm81.15039 27.828125q0 5.765625 -3.203125 11.171875q-3.1875 5.390625 -9.515625 8.59375q-6.3125 3.1875 -13.203125 3.1875q-6.828125 0 -13.078125 -3.140625q-6.25 -3.15625 -9.53125 -8.578125q-3.265625 -5.421875 -3.265625 -11.328125q0 -6.0 3.3125 -11.78125q3.328125 -5.796875 9.546875 -9.109375q6.234375 -3.328125 13.015625 -3.328125q6.84375 0 13.15625 3.390625q6.328125 3.390625 9.546875 9.140625q3.21875 5.734375 3.21875 11.78125zm-10.0 0.046875q0 -4.828125 -3.46875 -8.875q-4.734375 -5.46875 -12.453125 -5.46875q-6.78125 0 -11.328125 4.34375q-4.546875 4.34375 -4.546875 10.0625q0 4.6875 4.59375 8.765625q4.59375 4.0625 11.28125 4.0625q6.734375 0 11.328125 -4.0625q4.59375 -4.078125 4.59375 -8.828125zm70.009766 -0.046875q0 5.765625 -3.203125 11.171875q-3.1875 5.390625 -9.515625 8.59375q-6.3125 3.1875 -13.203125 3.1875q-6.828125 0 -13.078125 -3.140625q-6.25 -3.15625 -9.53125 -8.578125q-3.265625 -5.421875 -3.265625 -11.328125q0 -6.0 3.3125 -11.78125q3.328125 -5.796875 9.546875 -9.109375q6.234375 -3.328125 13.015625 -3.328125q6.84375 0 13.15625 3.390625q6.328125 3.390625 9.546875 9.140625q3.21875 5.734375 3.21875 11.78125zm-10.0 0.046875q0 -4.828125 -3.46875 -8.875q-4.734375 -5.46875 -12.453125 -5.46875q-6.78125 0 -11.328125 4.34375q-4.546875 4.34375 -4.546875 10.0625q0 4.6875 4.59375 8.765625q4.59375 4.0625 11.28125 4.0625q6.734375 0 11.328125 -4.0625q4.59375 -4.078125 4.59375 -8.828125zm49.02539 -42.03125l0 53.3125l12.0 0q3.625 0 5.15625 1.390625q1.546875 1.390625 1.546875 3.640625q0 2.203125 -1.546875 3.59375q-1.53125 1.390625 -5.15625 1.390625l-34.03125 0q-3.609375 0 -5.15625 -1.390625q-1.53125 -1.390625 -1.53125 -3.640625q0 -2.203125 1.53125 -3.59375q1.546875 -1.390625 5.15625 -1.390625l12.015625 0l0 -43.3125l-8.0625 0q-3.5625 0 -5.125 -1.390625q-1.5625 -1.390625 -1.5625 -3.625q0 -2.203125 1.53125 -3.59375q1.546875 -1.390625 5.15625 -1.390625l18.078125 0zm65.822266 30.703125q-2.453125 -1.5 -5.140625 -2.25q-2.671875 -0.765625 -5.609375 -0.765625q-5.8125 0 -9.234375 1.90625q-1.5 0.828125 -1.5 1.796875q0 1.125 2.046875 2.203125q1.5625 0.78125 6.984375 1.515625q9.953125 1.359375 13.859375 2.734375q5.125 1.796875 7.90625 5.375q2.796875 3.5625 2.796875 7.515625q0 5.359375 -4.75 8.984375q-6.78125 5.21875 -17.625 5.21875q-4.34375 0 -8.03125 -0.765625q-3.6875 -0.75 -6.765625 -2.21875q-0.71875 0.640625 -1.5625 0.984375q-0.828125 0.34375 -1.703125 0.34375q-2.34375 0 -3.734375 -1.53125q-1.390625 -1.546875 -1.390625 -5.15625l0 -3.375q0 -3.609375 1.390625 -5.140625q1.390625 -1.546875 3.640625 -1.546875q1.796875 0 3.015625 1.0q1.234375 1.0 1.90625 3.4375q2.296875 1.953125 5.515625 2.953125q3.234375 1.0 7.4375 1.0q6.875 0 10.6875 -2.140625q1.8125 -1.078125 1.8125 -2.25q0 -1.953125 -2.59375 -3.21875q-2.59375 -1.265625 -10.6875 -2.15625q-12.0625 -1.265625 -16.125 -4.875q-4.046875 -3.5625 -4.046875 -8.796875q0 -5.359375 4.546875 -8.921875q6.140625 -4.890625 16.109375 -4.890625q3.46875 0 6.65625 0.65625q3.203125 0.65625 6.140625 2.03125q0.921875 -0.6875 1.71875 -1.03125q0.8125 -0.34375 1.5 -0.34375q2.046875 0 3.40625 1.546875q1.375 1.53125 1.375 5.15625l0 2.4375q0 3.265625 -0.78125 4.4375q-1.5625 2.25 -4.25 2.25q-1.796875 0 -3.171875 -1.125q-1.359375 -1.125 -1.75 -2.984375z" fill-rule="nonzero"/></g></svg>